<svg width="118" height="30" viewBox="0 0 118 30" fill="none" xmlns="http://www.w3.org/2000/svg">
<path d="M0.683594 29.7841V0.57843H17.8844V29.7699H0.683594V29.7841ZM15.8004 22.9894L16.2429 19.7634L14.6441 19.6064L14.1588 22.0902C13.1595 22.5898 11.9319 22.8324 10.4617 22.8324C8.46322 22.8324 6.87874 22.2044 5.7225 20.9339C4.55199 19.6635 3.98101 17.9934 3.98101 15.9093C3.98101 13.8823 4.55199 12.2122 5.67968 10.8989C6.80737 9.58566 8.29196 8.92903 10.1334 8.92903C11.0755 8.92903 11.8748 9.04323 12.5172 9.25735C13.1596 9.47147 13.7448 9.75696 14.3015 10.1281L14.7726 12.5833L16.3999 12.4263L15.9288 9.20025C15.2437 8.615 14.43 8.14394 13.4879 7.7728C12.5457 7.41593 11.3752 7.23036 9.99062 7.23036C8.34905 7.23036 6.93587 7.63005 5.75108 8.4437C4.56629 9.25735 3.63845 10.3279 2.98182 11.6555C2.32519 12.9973 1.99687 14.439 1.99687 15.9807C1.99687 18.4216 2.75342 20.4629 4.26652 22.0902C5.77962 23.7175 7.74949 24.5311 10.1904 24.5311C12.5886 24.5311 14.4586 24.0172 15.8004 22.9894Z" fill="#292F36"/>
<path d="M23.7227 29.7841V0.57843H31.1169V29.7699H23.7227V29.7841ZM24.5077 24.2742H30.346V22.8039H28.3333V6.50236H24.4792V7.97264H26.5205V22.8039H24.5077V24.2742Z" fill="#292F36"/>
<path d="M36.9551 29.7841V0.57843H49.9449V29.7699H36.9551V29.7841ZM39.3104 13.6539L38.8964 16.309L40.3952 16.4945L40.8378 14.5104C41.4801 14.1963 42.2081 14.0393 43.0646 14.0393C44.0923 14.0393 44.7918 14.2963 45.1487 14.8101C45.5056 15.324 45.6768 15.9949 45.6768 16.8229V17.8506C45.3628 17.8221 45.0345 17.7935 44.6776 17.7792C44.3207 17.765 43.9782 17.7507 43.6356 17.7507C42.3509 17.7507 41.1232 17.9791 39.9813 18.4359C38.8393 18.8927 38.2684 19.8491 38.2684 21.2908C38.2684 22.5184 38.6538 23.3606 39.4389 23.8174C40.224 24.2884 40.9948 24.5168 41.7513 24.5168C42.6792 24.5168 43.4785 24.2742 44.1352 23.7888C44.7918 23.3035 45.3057 22.7611 45.6768 22.133V22.1901C45.7054 23.746 46.4048 24.5168 47.7752 24.5168C48.3034 24.5168 48.8029 24.3884 49.274 24.1314L49.2455 22.9466C49.0171 23.0465 48.7601 23.1036 48.4746 23.1036C47.818 23.1036 47.4897 22.6897 47.4897 21.8618V16.3946C47.4897 13.8252 46.1193 12.5405 43.3786 12.5405C42.6221 12.5405 41.9083 12.6261 41.2374 12.7974C40.5523 12.983 39.9099 13.2685 39.3104 13.6539ZM45.6626 19.9632C45.5912 20.9054 45.2058 21.6619 44.5063 22.2043C43.8069 22.7611 43.0646 23.0323 42.2652 23.0323C41.7656 23.0323 41.2803 22.8895 40.8235 22.6183C40.3524 22.3471 40.124 21.8332 40.124 21.0909C40.124 20.1916 40.4809 19.6207 41.1661 19.3494C41.8655 19.0782 42.6363 18.9498 43.5071 18.9498C43.8925 18.9498 44.2636 18.964 44.6205 19.0069C44.9774 19.0354 45.3342 19.064 45.6483 19.0782V19.9632H45.6626Z" fill="#292F36"/>
<path d="M55.7969 29.7841V0.57843H67.6019V29.7699H55.7969V29.7841ZM66.36 20.9482C66.36 20.0346 66.1173 19.3637 65.632 18.9212C65.1467 18.4787 64.5614 18.1789 63.8477 18.0076C63.134 17.8363 62.4345 17.6936 61.7351 17.5794C61.0356 17.4652 60.4361 17.2796 59.9508 17.037C59.4654 16.7943 59.2228 16.3661 59.2228 15.7523C59.2228 15.167 59.4511 14.7388 59.9222 14.4533C60.3933 14.1678 60.9785 14.0393 61.7065 14.0393C62.5487 14.0393 63.3338 14.2249 64.0618 14.6103L64.3474 16.466L65.8462 16.2804L65.5607 13.5968C65.0753 13.297 64.4901 13.0544 63.7906 12.8545C63.0912 12.6547 62.3489 12.5405 61.5495 12.5405C60.4932 12.5405 59.5225 12.7974 58.6232 13.297C57.724 13.7966 57.2814 14.6531 57.2814 15.8807C57.2814 16.78 57.5241 17.4367 58.0094 17.8506C58.4947 18.2789 59.0943 18.5643 59.8223 18.7356C60.5503 18.9069 61.264 19.0497 61.9777 19.1782C62.6915 19.2923 63.291 19.4922 63.7763 19.7491C64.2617 20.0061 64.5043 20.4486 64.5043 21.0909C64.5043 21.7476 64.1903 22.2329 63.5622 22.5469C62.9341 22.861 62.2204 23.018 61.4068 23.018C60.4932 23.018 59.6367 22.8324 58.8516 22.447L58.923 20.9196L57.4813 20.7626L57.1244 23.3749C57.624 23.7032 58.2806 23.9744 59.08 24.1885C59.8794 24.4026 60.6788 24.5168 61.4924 24.5168C62.877 24.5168 64.0333 24.2028 64.9611 23.5604C65.889 22.9466 66.36 22.0616 66.36 20.9482Z" fill="#292F36"/>
<path d="M73.4414 29.7841V0.57843H85.2464V29.7699H73.4414V29.7841ZM84.0045 20.9482C84.0045 20.0346 83.7618 19.3637 83.2765 18.9212C82.7912 18.4787 82.2059 18.1789 81.4922 18.0076C80.7785 17.8363 80.079 17.6936 79.3796 17.5794C78.6801 17.4652 78.0806 17.2796 77.5953 17.037C77.1099 16.7943 76.8672 16.3661 76.8672 15.7523C76.8672 15.167 77.0956 14.7388 77.5667 14.4533C78.0377 14.1678 78.623 14.0393 79.351 14.0393C80.1932 14.0393 80.9783 14.2249 81.7063 14.6103L81.9918 16.466L83.4906 16.2804L83.2051 13.5968C82.7198 13.297 82.1346 13.0544 81.4351 12.8545C80.7357 12.6547 79.9934 12.5405 79.194 12.5405C78.1377 12.5405 77.167 12.7974 76.2677 13.297C75.3684 13.7966 74.9259 14.6531 74.9259 15.8807C74.9259 16.78 75.1686 17.4367 75.6539 17.8506C76.1393 18.2789 76.7388 18.5643 77.4668 18.7356C78.1948 18.9069 78.9085 19.0497 79.6222 19.1782C80.3359 19.2923 80.9355 19.4922 81.4208 19.7491C81.9062 20.0061 82.1488 20.4486 82.1488 21.0909C82.1488 21.7476 81.8348 22.2329 81.2068 22.5469C80.5787 22.861 79.8649 23.018 79.0513 23.018C78.1377 23.018 77.2812 22.8324 76.4961 22.447L76.5675 20.9196L75.1258 20.7626L74.7689 23.3749C75.2685 23.7032 75.9252 23.9744 76.7245 24.1885C77.5239 24.4026 78.3233 24.5168 79.1369 24.5168C80.5216 24.5168 81.6778 24.2028 82.6056 23.5604C83.5335 22.9466 84.0045 22.0616 84.0045 20.9482Z" fill="#292F36"/>
<path d="M91.084 29.7841V0.57843H98.8636V29.7699H91.084V29.7841ZM92.2259 24.2742H98.0643V22.8039H96.0515V12.7832H92.1832V14.2534H94.2529V22.8039H92.2402V24.2742H92.2259ZM94.0531 7.45876V9.81406H96.023V7.45876H94.0531Z" fill="#292F36"/>
<path d="M104.703 29.7841V0.57843H117.136V29.7699H104.703V29.7841ZM116.023 20.4058L114.467 20.0632C114.124 22.0045 113.082 22.9752 111.369 22.9752C110.227 22.9752 109.357 22.5898 108.757 21.8189C108.158 21.0481 107.858 19.9632 107.858 18.5929C107.858 17.351 108.129 16.2947 108.657 15.4097C109.185 14.5247 110.07 14.0964 111.298 14.0964C112.24 14.0964 113.068 14.3105 113.753 14.7388L114.196 16.6801L115.695 16.4945L115.252 13.7253C114.667 13.2828 114.053 12.9687 113.411 12.7974C112.768 12.6261 112.069 12.5405 111.312 12.5405C109.528 12.5405 108.172 13.1686 107.287 14.4247C106.388 15.6809 105.945 17.1083 105.945 18.6928C105.945 20.5342 106.416 21.976 107.372 22.9894C108.315 24.0172 109.585 24.5311 111.17 24.5311C112.754 24.5311 113.925 24.0886 114.667 23.2178C115.409 22.3328 115.866 21.405 116.023 20.4058Z" fill="#292F36"/>
</svg>
