<svg width="117" height="9" viewBox="0 0 117 9" fill="none" xmlns="http://www.w3.org/2000/svg">
<path d="M7.12067 6.72874C6.79236 7.32827 6.30701 7.79933 5.67893 8.12765C5.03658 8.45596 4.28002 8.62725 3.395 8.62725H0.839844V0.576416H3.395C4.28002 0.576416 5.05085 0.733436 5.67893 1.06175C6.30701 1.39006 6.79236 1.84685 7.12067 2.46065C7.44899 3.07446 7.606 3.77391 7.606 4.60183C7.606 5.41548 7.44899 6.12921 7.12067 6.72874ZM5.70747 6.88576C6.26417 6.34333 6.53541 5.58678 6.53541 4.60183C6.53541 3.61689 6.26417 2.86034 5.70747 2.31791C5.15076 1.77547 4.35138 1.50426 3.29507 1.50426H1.85337V7.69941H3.29507C4.35138 7.69941 5.15076 7.42819 5.70747 6.88576Z" fill="#292F36"/>
<path d="M12.9014 1.41861V4.1736H15.9562V4.97297H12.9014V7.78506H16.2988V8.62725H11.8594V0.576416H16.2988V1.41861H12.9014Z" fill="#292F36"/>
<path d="M25.32 7.59956C25.1344 7.92788 24.8632 8.1991 24.4921 8.39894C24.1209 8.59878 23.6641 8.71298 23.1074 8.71298C22.5793 8.71298 22.0939 8.61306 21.68 8.42749C21.266 8.22764 20.9377 7.9707 20.6808 7.62811C20.4381 7.28552 20.2953 6.90011 20.2525 6.47187H21.3659C21.3945 6.70027 21.4659 6.92866 21.5943 7.14278C21.7228 7.3569 21.9226 7.54247 22.1653 7.68521C22.408 7.82796 22.7077 7.89933 23.0646 7.89933C23.5214 7.89933 23.8783 7.78513 24.121 7.52819C24.3636 7.27125 24.4921 6.97148 24.4921 6.58607C24.4921 6.25776 24.4064 5.98654 24.2351 5.7867C24.0638 5.58685 23.8497 5.41556 23.6071 5.30136C23.3644 5.18717 23.0075 5.0587 22.5793 4.91595C22.0654 4.74466 21.6657 4.58764 21.3517 4.44489C21.0377 4.30215 20.7807 4.07375 20.5666 3.77399C20.3524 3.47422 20.2383 3.08881 20.2383 2.60348C20.2383 2.18951 20.3382 1.81838 20.538 1.49006C20.7379 1.17602 21.0233 0.919081 21.4088 0.747787C21.7799 0.576492 22.2367 0.490845 22.7363 0.490845C23.5214 0.490845 24.1637 0.676416 24.6205 1.06183C25.0916 1.44724 25.3485 1.93257 25.4342 2.5321H24.3208C24.2637 2.21806 24.0924 1.93257 23.8354 1.68991C23.5642 1.44724 23.2074 1.31877 22.7506 1.31877C22.3366 1.31877 21.994 1.43297 21.7514 1.64708C21.4944 1.8612 21.3802 2.17524 21.3802 2.56065C21.3802 2.87469 21.4659 3.13163 21.6229 3.3172C21.7942 3.51705 21.994 3.65979 22.2367 3.77399C22.4794 3.88818 22.8219 4.00238 23.2359 4.14513C23.7498 4.31642 24.1638 4.47344 24.4921 4.63046C24.8061 4.78748 25.0773 5.01587 25.2914 5.31564C25.5056 5.6154 25.6198 6.02937 25.6198 6.54325C25.5912 6.91439 25.5056 7.27125 25.32 7.59956Z" fill="#292F36"/>
<path d="M30.8878 0.576416V8.62725H29.8457V0.576416H30.8878Z" fill="#292F36"/>
<path d="M41.4233 1.19033C42.0656 1.66139 42.4938 2.28946 42.708 3.08884H41.6088C41.4233 2.6035 41.0949 2.20382 40.6524 1.91833C40.2099 1.61856 39.6818 1.47581 39.068 1.47581C38.5255 1.47581 38.0259 1.60429 37.5977 1.86123C37.1694 2.11817 36.8269 2.47504 36.5699 2.94609C36.3273 3.41715 36.1988 3.97386 36.1988 4.61621C36.1988 5.27284 36.3273 5.84383 36.5699 6.31489C36.8126 6.78595 37.1694 7.15708 37.6119 7.41403C38.0545 7.67097 38.5684 7.79943 39.1536 7.79943C39.6532 7.79943 40.0957 7.68524 40.5097 7.4854C40.9236 7.27128 41.2519 6.95724 41.5232 6.55755C41.7944 6.15786 41.9371 5.67253 41.9942 5.1301H38.8253V4.35927H42.865V5.31567C42.7936 5.95802 42.5938 6.529 42.2655 7.05716C41.9371 7.58532 41.4946 7.985 40.9379 8.28477C40.3812 8.58453 39.7531 8.74155 39.0394 8.74155C38.2686 8.74155 37.5834 8.57026 36.9839 8.22767C36.3843 7.88509 35.9275 7.39975 35.5992 6.77167C35.2709 6.15787 35.0996 5.44414 35.0996 4.64476C35.0996 3.84539 35.2709 3.13166 35.5992 2.51786C35.9275 1.90405 36.3986 1.40445 36.9839 1.06186C37.5691 0.719268 38.2543 0.533695 39.0251 0.533695C39.9958 0.505146 40.7809 0.733543 41.4233 1.19033Z" fill="#292F36"/>
<path d="M53.3993 8.62725H52.3573L48.1748 2.26081V8.62725H47.1328V0.576416H48.1748L52.3573 6.94286V0.576416H53.3993V8.62725Z" fill="#292F36"/>
<path d="M68.4157 7.59956C68.2301 7.92788 67.9589 8.1991 67.5878 8.39894C67.2166 8.59878 66.7599 8.71298 66.2032 8.71298C65.675 8.71298 65.1897 8.61306 64.7757 8.42749C64.3618 8.22764 64.0334 7.9707 63.7765 7.62811C63.5338 7.28552 63.3911 6.90011 63.3483 6.47187H64.4616C64.4902 6.70027 64.5616 6.92866 64.6901 7.14278C64.8186 7.3569 65.0183 7.54247 65.261 7.68521C65.5037 7.82796 65.8035 7.89933 66.1603 7.89933C66.6171 7.89933 66.9739 7.78513 67.2166 7.52819C67.4593 7.27125 67.5878 6.97148 67.5878 6.58607C67.5878 6.25776 67.5021 5.98654 67.3308 5.7867C67.1595 5.58685 66.9454 5.41556 66.7028 5.30136C66.4601 5.18717 66.1033 5.0587 65.675 4.91595C65.1611 4.74466 64.7614 4.58764 64.4474 4.44489C64.1333 4.30215 63.8764 4.07375 63.6623 3.77399C63.4482 3.47422 63.334 3.08881 63.334 2.60348C63.334 2.18951 63.4339 1.81838 63.6337 1.49006C63.8335 1.17602 64.1191 0.919081 64.5045 0.747787C64.8756 0.576492 65.3324 0.490845 65.832 0.490845C66.6171 0.490845 67.2595 0.676416 67.7163 1.06183C68.1873 1.44724 68.4443 1.93257 68.5299 2.5321H67.4165C67.3594 2.21806 67.188 1.93257 66.9311 1.68991C66.6599 1.44724 66.3031 1.31877 65.8463 1.31877C65.4324 1.31877 65.0897 1.43297 64.8471 1.64708C64.5901 1.8612 64.4759 2.17524 64.4759 2.56065C64.4759 2.87469 64.5616 3.13163 64.7186 3.3172C64.8899 3.51705 65.0897 3.65979 65.3324 3.77399C65.575 3.88818 65.9176 4.00238 66.3316 4.14513C66.8455 4.31642 67.2595 4.47344 67.5878 4.63046C67.9018 4.78748 68.173 5.01587 68.3871 5.31564C68.6013 5.6154 68.7154 6.02937 68.7154 6.54325C68.6869 6.91439 68.6013 7.27125 68.4157 7.59956Z" fill="#292F36"/>
<path d="M77.8789 0.576416V1.41861H75.6092V8.62725H74.5529V1.41861H72.2832V0.576416H77.8789Z" fill="#292F36"/>
<path d="M82.7322 0.576416V5.40121C82.7322 6.1863 82.9035 6.77156 83.2603 7.15698C83.6172 7.52812 84.0883 7.72796 84.7164 7.72796C85.3302 7.72796 85.8012 7.54239 86.1438 7.15698C86.4864 6.77156 86.6577 6.20058 86.6577 5.41548V0.590688H87.6998V5.41548C87.6998 6.51462 87.4286 7.34254 86.8861 7.88498C86.3437 8.44168 85.6156 8.7129 84.7021 8.7129C83.8028 8.7129 83.0748 8.44168 82.5324 7.88498C81.99 7.32827 81.7188 6.51462 81.7188 5.41548V0.590688H82.7322V0.576416Z" fill="#292F36"/>
<path d="M98.4487 6.72874C98.1204 7.32827 97.635 7.79933 97.007 8.12765C96.3646 8.45596 95.6081 8.62725 94.7231 8.62725H92.168V0.576416H94.7231C95.6081 0.576416 96.3789 0.733436 97.007 1.06175C97.635 1.39006 98.1204 1.84685 98.4487 2.46065C98.777 3.07446 98.9341 3.77391 98.9341 4.60183C98.9341 5.41548 98.777 6.12921 98.4487 6.72874ZM97.0498 6.88576C97.6065 6.34333 97.8778 5.58678 97.8778 4.60183C97.8778 3.61689 97.6065 2.86034 97.0498 2.31791C96.4931 1.77547 95.6938 1.50426 94.6374 1.50426H93.1957V7.69941H94.6374C95.6795 7.69941 96.4931 7.42819 97.0498 6.88576Z" fill="#292F36"/>
<path d="M104.245 0.576416V8.62725H103.203V0.576416H104.245Z" fill="#292F36"/>
<path d="M114.465 1.00472C115.065 1.36158 115.536 1.84691 115.879 2.47499C116.221 3.10307 116.392 3.8168 116.392 4.6019C116.392 5.387 116.221 6.10073 115.879 6.72881C115.536 7.35688 115.065 7.84222 114.465 8.19909C113.866 8.55595 113.195 8.72724 112.453 8.72724C111.71 8.72724 111.025 8.55595 110.426 8.19909C109.826 7.84222 109.341 7.35688 108.998 6.72881C108.656 6.10073 108.484 5.387 108.484 4.6019C108.484 3.8168 108.656 3.10307 108.998 2.47499C109.341 1.84691 109.812 1.36158 110.426 1.00472C111.039 0.647855 111.71 0.476562 112.453 0.476562C113.195 0.476562 113.866 0.647855 114.465 1.00472ZM110.954 1.83264C110.511 2.08958 110.169 2.44644 109.926 2.93178C109.683 3.40284 109.555 3.95955 109.555 4.6019C109.555 5.22998 109.683 5.78669 109.926 6.27202C110.169 6.75736 110.511 7.11422 110.954 7.37116C111.396 7.6281 111.882 7.75657 112.438 7.75657C112.981 7.75657 113.48 7.6281 113.923 7.37116C114.365 7.11422 114.708 6.74308 114.951 6.27202C115.193 5.80096 115.322 5.24425 115.322 4.61617C115.322 3.97382 115.193 3.41712 114.951 2.94606C114.708 2.475 114.365 2.10386 113.923 1.84692C113.48 1.58997 112.995 1.4615 112.438 1.4615C111.896 1.44723 111.396 1.5757 110.954 1.83264Z" fill="#292F36"/>
</svg>
