<svg width="107" height="22" viewBox="0 0 107 22" fill="none" xmlns="http://www.w3.org/2000/svg">
<path d="M11.1648 21.7798L6.49121 13.6193H5.30469V21.7798H0.0742188V0.167786H8.99749C10.7047 0.167786 12.1576 0.458371 13.332 1.05164C14.5186 1.64491 15.4024 2.45611 15.9957 3.48526C16.5889 4.5144 16.8795 5.68884 16.8795 7.02067C16.8795 8.59465 16.4436 9.92648 15.584 11.0283C14.7123 12.1301 13.4652 12.8807 11.8064 13.2924L16.94 21.7919H11.1648V21.7798ZM5.30469 10.0476H8.53739C9.57864 10.0476 10.3414 9.81752 10.8257 9.35743C11.31 8.89734 11.5643 8.21932 11.5643 7.32336C11.5643 6.46372 11.31 5.7978 10.8136 5.30139C10.3172 4.81709 9.55443 4.56284 8.53739 4.56284H5.30469V10.0476Z" fill="#292F36"/>
<path d="M40.5377 17.8449H32.4377L31.0938 21.7919H25.5969L33.5153 0.337306H39.5328L47.4511 21.7919H41.8938L40.5377 17.8449ZM39.1938 13.8615L36.5059 5.91889L33.7817 13.8615H39.1938Z" fill="#292F36"/>
<path d="M76.3034 21.7798H71.073L62.3313 8.50992V21.7798H57.1008V0.167812H62.3313L71.073 13.5588V0.167812H76.3034V21.7798Z" fill="#292F36"/>
<path d="M105.628 16.5736C104.72 18.2081 103.412 19.4915 101.717 20.4117C100.01 21.3318 98.0123 21.7919 95.7118 21.7919H87.5514V0.179926H95.7118C98.0365 0.179926 100.046 0.627907 101.729 1.52387C103.424 2.41983 104.72 3.67901 105.628 5.31353C106.536 6.94805 106.984 8.81262 106.984 10.9435C106.984 13.0503 106.524 14.9269 105.628 16.5736ZM99.9979 15.4839C101.124 14.4063 101.693 12.8808 101.693 10.9314C101.693 8.97001 101.124 7.45658 99.9979 6.379C98.8719 5.30143 97.2859 4.75658 95.2397 4.75658H92.7697V17.1063H95.2397C97.2859 17.1063 98.8719 16.5736 99.9979 15.4839Z" fill="#292F36"/>
</svg>
